#!OML:ASF E:\acrobat2\Project_11_07_03\Capture day 1\Session 1\Acrobat.ASF
:FULLY-SPECIFIED
:DEGREES
581
root 10.7466 6.03502 11.6531 -88.3531 3.82073 179.504
lowerback -4.83554 -3.28014 5.37409
upperback 0.288883 -4.72713 0.847184
thorax 2.64566 -2.29271 -2.44596
lowerneck 5.11171 -14.6687 -10.7828
upperneck -29.3116 -15.4813 29.7021
head -5.78861 -8.39568 12.492
rclavicle 3.33958e-014 -4.21532e-014
rhumerus 31.8155 -33.1144 -32.4902
rradius 120.256
rwrist -22.8899
rhand -19.6403 -42.7294
rfingers 7.12502
rthumb 6.68707 -72.6038
lclavicle 3.33958e-014 -4.21532e-014
lhumerus 15.9635 48.0697 1.22806
lradius 108.521
lwrist 34.3027
lhand -4.41731 -25.9918
lfingers 7.12502
lthumb 21.3532 2.85168
rfemur 1.08848 16.3396 -8.73299
rtibia -3.26007e-014
rfoot 31.2053 -25.3377
rtoes 27.3581
lfemur -11.2138 -21.3293 2.91519
ltibia 18.6525
lfoot 37.0236 11.6237
ltoes 18.997
582
root 10.7471 6.03386 11.6522 -88.3549 3.84011 179.492
lowerback -4.8431 -3.27725 5.35052
upperback 0.294942 -4.72248 0.842522
thorax 2.65799 -2.29021 -2.43827
lowerneck 5.10782 -14.6427 -10.7865
upperneck -29.336 -15.4281 29.7352
head -5.80223 -8.37076 12.5122
rclavicle 3.33958e-014 -2.02807e-014
rhumerus 31.8005 -33.1467 -32.4673
rradius 120.261
rwrist -22.8974
rhand -19.6326 -42.7106
rfingers 7.12502
rthumb 6.69447 -72.5847
lclavicle 3.33958e-014 -2.02807e-014
lhumerus 16.0012 48.0963 1.26907
lradius 108.51
lwrist 34.2837
lhand -4.48913 -25.957
lfingers 7.12502
lthumb 21.2842 2.89432
rfemur 1.09385 16.3291 -8.7505
rtibia -1.59028e-015
rfoot 31.317 -25.1646
rtoes 27.1197
lfemur -11.209 -21.3252 2.89412
ltibia 18.6435
lfoot 37.0511 11.6551
ltoes 19.1931
583
root 10.7483 6.03291 11.6492 -88.3617 3.88573 179.469
lowerback -4.841 -3.278 5.29025
upperback 0.299848 -4.71971 0.83402
thorax 2.66611 -2.28929 -2.41367
lowerneck 5.07729 -14.6175 -10.7918
upperneck -29.3307 -15.3871 29.7221
head -5.80493 -8.34602 12.5084
rclavicle -1.59028e-015 7.40162e-015
rhumerus 31.7792 -33.1787 -32.4408
rradius 120.264
rwrist -22.8974
rhand -19.6128 -42.704
rfingers 7.12502
rthumb 6.71357 -72.5776
lclavicle -1.59028e-015 7.40162e-015
lhumerus 16.0431 48.1162 1.31527
lradius 108.502
lwrist 34.2604
lhand -4.67449 -25.7793
lfingers 7.12502
lthumb 21.1061 3.09197
rfemur 1.08731 16.3102 -8.79713
rtibia 1.82882e-014
rfoot 31.6503 -24.7527
rtoes 26.1574
lfemur -11.165 -21.3339 2.84295
ltibia 18.5612
lfoot 37.0726 11.712
ltoes 19.2415
584
root 10.7499 6.03226 11.6459 -88.372 3.94954 179.436
lowerback -4.83281 -3.28252 5.20408
upperback 0.303982 -4.71992 0.822243
thorax 2.67153 -2.29029 -2.37787
lowerneck 5.00624 -14.6008 -10.7921
upperneck -29.2804 -15.3679 29.6804
head -5.78576 -8.32823 12.4815
rclavicle 2.54444e-014 -6.21202e-016
rhumerus 31.7631 -33.209 -32.4105
rradius 120.261
rwrist -22.8917
rhand -19.5878 -42.7234
rfingers 7.12502
rthumb 6.73777 -72.5962
lclavicle 2.54444e-014 -6.21202e-016
lhumerus 16.0822 48.129 1.35628
lradius 108.497
lwrist 34.2423
lhand -4.9089 -25.5335
lfingers 7.12502
lthumb 20.8809 3.36272
rfemur 1.08263 16.2827 -8.86287
rtibia 2.14687e-014
rfoot 31.994 -24.2805
rtoes 25.0225
lfemur -11.108 -21.3569 2.77355
ltibia 18.4492
lfoot 37.0803 11.777
ltoes 19.2018
585
root 10.752 6.0319 11.6431 -88.3836 4.01935 179.392
lowerback -4.82216 -3.29069 5.10721
upperback 0.30726 -4.72411 0.808479
thorax 2.67506 -2.29347 -2.33822
lowerneck 4.90538 -14.595 -10.7875
upperneck -29.1954 -15.3696 29.6317
head -5.74724 -8.31967 12.4418
rclavicle -2.54444e-014 -1.83037e-014
rhumerus 31.7554 -33.2364 -32.3801
rradius 120.25
rwrist -22.8838
rhand -19.5607 -42.7627
rfingers 7.12502
rthumb 6.76393 -72.6347
lclavicle -2.54444e-014 -1.83037e-014
lhumerus 16.1276 48.135 1.39499
lradius 108.493
lwrist 34.2361
lhand -5.10926 -25.3079
lfingers 7.12502
lthumb 20.6884 3.60939
rfemur 1.08485 16.246 -8.93402
rtibia -2.22639e-014
rfoot 32.3046 -23.8354
rtoes 23.9227
lfemur -11.0612 -21.3905 2.70124
ltibia 18.346
lfoot 37.0821 11.8078
ltoes 19.0457
586
root 10.7544 6.0321 11.6437 -88.3952 4.08184 179.342
lowerback -4.81041 -3.30049 5.01643
upperback 0.310202 -4.73078 0.794899
thorax 2.67698 -2.29786 -2.30179
lowerneck 4.79219 -14.5965 -10.7893
upperneck -29.0933 -15.3838 29.5978
head -5.69586 -8.31775 12.4035
rclavicle -2.06736e-014 -5.67779e-015
rhumerus 31.7534 -33.2596 -32.3549
rradius 120.234
rwrist -22.8793
rhand -19.537 -42.7952
rfingers 7.12502
rthumb 6.78674 -72.6664
lclavicle -2.06736e-014 -5.67779e-015
lhumerus 16.1877 48.1376 1.44
lradius 108.486
lwrist 34.2364
lhand -5.24125 -25.1499
lfingers 7.12502
lthumb 20.5616 3.78117
rfemur 1.11678 16.2046 -8.99401
rtibia -4.77083e-015
rfoot 32.3673 -23.6771
rtoes 23.6789
lfemur -11.0404 -21.4232 2.64472
ltibia 18.2778
lfoot 37.0986 11.7705
ltoes 18.8143
587
root 10.7569 6.03259 11.6455 -88.4042 4.12956 179.294
lowerback -4.80003 -3.30863 4.94263
upperback 0.312463 -4.73635 0.783167
thorax 2.6779 -2.30151 -2.27282
lowerneck 4.7069 -14.5894 -10.815
upperneck -29.0128 -15.3906 29.5449
head -5.65774 -8.30916 12.3688
rclavicle 2.38542e-014 -8.18744e-015
rhumerus 31.7535 -33.2777 -32.332
rradius 120.214
rwrist -22.8811
rhand -19.5264 -42.8129
rfingers 7.12502
rthumb 6.79698 -72.6838
lclavicle 2.38542e-014 -8.18744e-015
lhumerus 16.2576 48.1383 1.49409
lradius 108.477
lwrist 34.2305
lhand -5.28067 -25.1061
lfingers 7.12502
lthumb 20.5237 3.8291
rfemur 1.15264 16.1643 -9.04013
rtibia 2.78299e-015
rfoot 32.3238 -23.6522
rtoes 23.838
lfemur -11.0458 -21.4456 2.60738
ltibia 18.2522
lfoot 37.1395 11.6853
ltoes 18.6544
588
root 10.7594 6.03324 11.6477 -88.4081 4.16665 179.253
lowerback -4.79276 -3.31321 4.88268
upperback 0.313594 -4.73815 0.772753
thorax 2.67869 -2.30311 -2.25009
lowerneck 4.66394 -14.5702 -10.8684
upperneck -28.9672 -15.3813 29.4899
head -5.63882 -8.29174 12.3482
rclavicle -7.95139e-015 2.48232e-014
rhumerus 31.757 -33.2966 -32.3038
rradius 120.191
rwrist -22.8946
rhand -19.5267 -42.8194
rfingers 7.12502
rthumb 6.79674 -72.6903
lclavicle -7.95139e-015 2.48232e-014
lhumerus 16.333 48.1388 1.55508
lradius 108.466
lwrist 34.2157
lhand -5.22123 -25.1866
lfingers 7.12502
lthumb 20.5808 3.74241
rfemur 1.17918 16.1282 -9.08037
rtibia 1.35174e-014
rfoot 32.2342 -23.7057
rtoes 24.2283
lfemur -11.0768 -21.4547 2.58331
ltibia 18.2693
lfoot 37.1904 11.579
ltoes 18.5665
589
root 10.7617 6.03395 11.6502 -88.4081 4.19708 179.222
lowerback -4.78803 -3.31379 4.83301
upperback 0.315037 -4.73542 0.763369
thorax 2.68084 -2.30226 -2.23191
lowerneck 4.6707 -14.5353 -10.9508
upperneck -28.9678 -15.3489 29.4349
head -5.64505 -8.26215 12.3454
rclavicle -3.97569e-014 -2.77771e-014
rhumerus 31.7665 -33.3244 -32.2705
rradius 120.164
rwrist -22.9233
rhand -19.534 -42.8062
rfingers 7.12502
rthumb 6.78971 -72.6774
lclavicle -3.97569e-014 -2.77771e-014
lhumerus 16.4086 48.1426 1.61413
lradius 108.449
lwrist 34.1964
lhand -5.12082 -25.3258
lfingers 7.12502
lthumb 20.6773 3.59277
rfemur 1.19536 16.0998 -9.11899
rtibia 8.74653e-015
rfoot 32.1245 -23.8176
rtoes 24.7764
lfemur -11.1164 -21.4517 2.5661
ltibia 18.3037
lfoot 37.2344 11.4717
ltoes 18.4741
590
root 10.764 6.03472 11.6526 -88.4044 4.22151 179.2
lowerback -4.78501 -3.31149 4.79096
upperback 0.31681 -4.72947 0.755936
thorax 2.68408 -2.29968 -2.21587
lowerneck 4.72363 -14.4868 -11.0366
upperneck -29.0254 -15.2954 29.3463
head -5.68597 -8.21941 12.3453
rclavicle 4.45278e-014 -2.17545e-014
rhumerus 31.7768 -33.3636 -32.2362
rradius 120.135
rwrist -22.9631
rhand -19.5483 -42.7753
rfingers 7.12502
rthumb 6.77588 -72.6468
lclavicle 4.45278e-014 -2.17545e-014
lhumerus 16.4807 48.1518 1.66419
lradius 108.425
lwrist 34.1753
lhand -4.97515 -25.5388
lfingers 7.12502
lthumb 20.8173 3.36446
rfemur 1.20212 16.0773 -9.15466
rtibia 1.74931e-014
rfoot 32.0004 -23.9474
rtoes 25.3903
lfemur -11.1595 -21.438 2.5552
ltibia 18.3445
lfoot 37.2658 11.3745
ltoes 18.3593
591
root 10.7662 6.03561 11.6547 -88.3984 4.23081 179.181
lowerback -4.78072 -3.30824 4.76302
upperback 0.317716 -4.72319 0.753861
thorax 2.68508 -2.29687 -2.20197
lowerneck 4.77313 -14.4484 -11.1056
upperneck -29.0841 -15.2457 29.3114
head -5.72075 -8.18539 12.3609
rclavicle 4.77083e-014 -2.98488e-015
rhumerus 31.7817 -33.4108 -32.2072
rradius 120.108
rwrist -23.0079
rhand -19.5614 -42.7377
rfingers 7.12502
rthumb 6.76325 -72.6097
lclavicle 4.77083e-014 -2.98488e-015
lhumerus 16.5488 48.1636 1.70651
lradius 108.395
lwrist 34.1542
lhand -4.87597 -25.7105
lfingers 7.12502
lthumb 20.9126 3.18228
rfemur 1.20372 16.0564 -9.17317
rtibia 8.74653e-015
rfoot 31.9045 -24.0306
rtoes 25.8885
lfemur -11.2058 -21.4154 2.56186
ltibia 18.3866
lfoot 37.2855 11.3007
ltoes 18.2533
